<svg width="48" height="48" viewBox="0 0 48 48" fill="none" xmlns="http://www.w3.org/2000/svg">
<path d="M22.9491 22.2041L3.06617 12.3178C2.99223 12.281 2.9922 12.1756 3.06612 12.1388L22.9627 2.23017C22.9907 2.21621 23.0237 2.21619 23.0517 2.2301L42.9648 12.1109C43.0388 12.1476 43.0389 12.2532 42.9649 12.29L23.0382 22.2041C23.0102 22.218 22.9772 22.218 22.9491 22.2041Z" stroke="#0B70E2" stroke-width="2"/>
<path d="M15.54 18.5875L35.9112 8.49812" stroke="#0B70E2" stroke-width="2"/>
<path d="M10.2068 15.8761L30.1408 5.7168" stroke="#0B70E2" stroke-width="2"/>
<path d="M3.02711 12.2426L3.0271 35.2282L22.989 45.2236L27.5166 42.898M43.0131 12.2256V23.28" stroke="#0B70E2" stroke-width="2"/>
<path d="M23.022 21.9453L23.022 45.2228" stroke="#0B70E2" stroke-width="2"/>
<path d="M10.0161 14.9551L10.0161 24.9966C10.0161 25.0589 10.0726 25.1061 10.1339 25.095L12.954 24.5843C12.9899 24.5778 13.0265 24.5913 13.0495 24.6197L15.8282 28.0448C15.8876 28.1179 16.0059 28.076 16.0059 27.9818V18.1063" stroke="#0B70E2" stroke-width="2"/>
<path d="M29.6596 39.9731C28.2922 37.1473 27.789 33.1945 28.0049 27.2905C29.8038 27.3029 31.3037 27.1133 32.7348 26.5962C34.2021 26.066 35.5326 25.2146 37.0061 24.0022C38.406 25.1747 39.7029 26.0041 41.1742 26.5319C42.6247 27.0521 44.1838 27.2573 46.0859 27.2731C46.2456 33.1849 45.7313 37.1427 44.3617 39.9731C42.9973 42.7928 40.7191 44.6181 37.0134 46.1019C33.3138 44.6174 31.0234 42.7916 29.6596 39.9731Z" stroke="#0B70E2" stroke-width="2"/>
<path d="M33.019 35.2329L35.1226 37.2543C35.3161 37.4403 35.622 37.4403 35.8155 37.2543L41.019 32.2539" stroke="#0B70E2" stroke-width="2" stroke-linecap="round"/>
</svg>

