<svg width="48" height="48" viewBox="0 0 48 48" fill="none" xmlns="http://www.w3.org/2000/svg">
<path d="M40.3203 35.5755C40.6534 35.8561 40.931 36.0806 41.2085 36.3238C42.0042 37.016 42.0227 37.3714 41.2455 38.0449C39.6357 39.4481 37.8038 40.4583 35.6759 40.7951C34.7322 40.9447 33.7886 40.9821 32.7709 41.057C32.8264 41.2628 32.8819 41.4873 32.9374 41.7118C33.1779 42.7407 33.4555 43.7697 33.622 44.7986C33.8071 45.9772 33.4185 46.3327 32.2157 46.1643C29.1256 45.7527 26.4056 44.5928 24.2222 42.273C24.1667 42.2169 24.0742 42.1795 24.0742 42.1608C23.0564 42.9278 22.1128 43.7135 21.0766 44.387C19.4112 45.4721 17.5239 45.9398 15.581 46.1643C14.5448 46.2766 14.2117 45.9211 14.3597 44.8547C14.5078 43.8445 14.7668 42.853 14.9889 41.8427C15.0444 41.5808 15.1554 41.3189 15.2664 40.9447C14.8964 40.9447 14.6003 40.9447 14.3042 40.9447C11.3622 40.9634 8.84567 39.8596 6.64374 37.9327C5.95911 37.334 5.99611 36.9599 6.68075 36.3238C6.97681 36.0619 7.29137 35.8187 7.66144 35.5006C7.4394 35.4071 7.27286 35.3322 7.12483 35.2574C4.34929 34.2098 2.66546 32.1518 1.79579 29.3269C1.59225 28.6908 1.77729 28.3354 2.42491 28.1109C2.70247 27.9986 2.99853 27.9238 3.3686 27.8115C3.23907 27.6245 3.12805 27.4748 3.03553 27.3251C1.68477 25.4917 0.963128 23.3964 1.00014 21.0204C1.01864 20.4592 0.981631 19.898 1.01864 19.3367C1.05565 18.6258 1.46273 18.3265 2.12886 18.4948C2.59145 18.6071 3.05404 18.7942 3.62765 18.9625C3.57214 18.6632 3.53513 18.4761 3.47962 18.2703C3.05404 16.5679 3.12805 14.8841 3.75717 13.2191C4.05323 12.4334 4.34929 11.6476 4.68236 10.8806C5.01542 10.1135 5.441 10.0013 6.14414 10.469C6.62524 10.787 7.08783 11.1425 7.62443 11.5167C7.84648 9.44004 8.58662 7.70018 10.0114 6.31577C11.1401 5.21198 12.5094 4.59461 14.0082 4.25786C14.6188 4.1269 14.9334 4.29528 15.1739 4.89394C16.3951 8.07434 16.1546 11.1238 14.2672 13.9674C13.6196 14.959 12.6574 15.4828 11.4547 15.5202C11.3067 15.5202 11.1586 15.5389 11.0846 15.5576C11.2141 16.5118 11.4177 17.4285 11.4547 18.3452C11.5102 19.9728 10.7515 21.1327 9.34527 21.881C9.23425 21.9371 9.12323 21.9933 9.0122 22.0494C8.9937 22.0681 8.95669 22.0868 8.88268 22.1616C10.1409 23.8267 10.4555 25.604 9.21574 27.5122C9.62282 27.6245 9.97439 27.7367 10.326 27.8302C12.9165 28.5037 14.2672 30.5616 13.4161 33.4053C14.4893 33.3492 15.5255 33.3679 16.4322 33.9853C17.3573 34.6213 17.8569 35.5193 18.1345 36.6605C19.0597 35.9496 20.0404 35.5193 21.2061 35.6129C22.3533 35.7064 23.223 36.3051 23.9816 37.0908C26.2946 35.2013 27.6453 35.089 29.8658 36.6231C30.4949 34.191 32.0862 33.1434 34.5472 33.3679C34.4732 32.8066 34.3622 32.3015 34.3437 31.7964C34.3067 30.1126 35.2503 28.7095 36.8231 28.1109C37.4523 27.8677 38.0999 27.6993 38.766 27.4748C37.6188 25.604 37.8223 23.8454 39.1916 22.1055C37.8964 21.5817 36.9712 20.7024 36.6566 19.3367C36.3606 18.0458 36.6566 16.8111 37.0452 15.5576C36.6196 15.5015 36.2125 15.5015 35.8425 15.408C34.9173 15.1648 34.1586 14.6222 33.6405 13.7991C31.8827 10.9928 31.6421 8.03693 32.8079 4.95007C33.0854 4.22045 33.4 4.08949 34.1771 4.25786C37.6373 5.06232 39.8947 7.58793 40.3388 11.2173C40.3388 11.2735 40.3758 11.3296 40.4128 11.4605C40.8754 11.1238 41.3195 10.8057 41.7821 10.4877C42.5778 9.96388 43.0034 10.0574 43.3549 10.9367C43.7805 12.0031 44.2431 13.0694 44.5392 14.1732C44.9647 15.7073 44.8722 17.2601 44.2986 18.9438C44.9092 18.7567 45.3718 18.5697 45.8529 18.4574C46.5005 18.289 46.9446 18.5697 46.9631 19.2057C47.0371 21.2075 47.0742 23.2093 46.186 25.0801C45.7419 25.9968 45.2053 26.8761 44.6872 27.8302C44.8907 27.9051 45.1683 27.9986 45.4458 28.0922C46.2045 28.3541 46.3525 28.6908 46.1305 29.4392C45.2238 32.3202 43.4659 34.3968 40.5794 35.3697C40.5054 35.4071 40.4684 35.4632 40.3203 35.5755ZM22.7604 38.3256C21.6317 39.6351 20.54 40.9073 19.3742 42.2356C18.9301 41.8427 18.5786 41.5247 18.19 41.1879C19.2817 39.8971 20.2994 38.681 21.3911 37.3714C20.4289 37.1282 19.7628 37.4276 19.1892 37.9888C18.005 39.1487 17.1168 40.5331 16.6172 42.1233C16.3766 42.853 16.2286 43.6013 16.0066 44.4619C18.7266 44.069 20.9285 43.0213 22.6494 41.0757C23.334 40.2899 23.408 39.3545 22.7604 38.3256ZM31.9197 44.4619C31.7346 42.9278 31.3091 41.5808 30.5874 40.3835C30.0323 39.4855 29.3662 38.6623 28.663 37.8953C28.1635 37.3527 27.4788 37.0721 26.6276 37.4089C27.7194 38.6997 28.7371 39.9158 29.8288 41.2066C29.4032 41.5621 29.0331 41.8614 28.6075 42.1982C27.4603 40.8699 26.3871 39.6164 25.2769 38.3443C24.6108 39.4481 24.6293 40.3086 25.3879 41.1318C27.1087 43.0213 29.2737 44.069 31.9197 44.4619ZM36.268 32.9937C36.7861 33.8917 37.5633 34.2098 38.47 34.1349C39.6172 34.0601 40.7089 33.742 41.6896 33.0873C42.9478 32.2267 43.873 31.1416 44.3171 29.6262C43.4474 29.1772 42.5408 29.1959 41.6711 29.0837C40.1723 28.8966 38.729 29.1398 37.3412 29.7385C36.6751 30.0191 36.1755 30.4681 36.046 31.3474C37.9334 30.7861 39.7282 30.2623 41.5971 29.7011C41.7451 30.2436 41.8746 30.6926 42.0412 31.2351C40.0613 31.8151 38.1924 32.3951 36.268 32.9937ZM11.7137 32.9937C9.77085 32.3951 7.88348 31.8151 5.9406 31.1977C6.12564 30.6178 6.27367 30.1688 6.4402 29.6824C8.30907 30.2436 10.1039 30.7674 11.9728 31.3287C11.8062 30.3746 11.2511 29.9069 10.5295 29.6449C9.12323 29.1398 7.66144 28.8779 6.18115 29.0463C5.34849 29.1398 4.47882 29.1585 3.72017 29.6262C4.36779 32.0396 6.82878 34.0975 9.78936 34.1349C10.5665 34.1536 11.2511 33.7982 11.7137 32.9937ZM5.82958 12.3024C5.55203 13.0507 5.25597 13.7055 5.07093 14.379C4.55283 16.175 4.77487 17.8775 5.77407 19.4677C6.21816 20.1973 6.84728 20.6276 7.80947 20.6463C7.27286 18.9812 6.75476 17.3723 6.19965 15.6886C6.73626 15.5202 7.18034 15.3706 7.71695 15.2209C8.25355 16.8298 8.77166 18.3265 9.34527 20.0663C9.56731 19.5051 9.82636 19.1496 9.82636 18.7755C9.82636 18.0645 9.75235 17.3536 9.58582 16.6614C9.06771 14.6596 7.66144 13.4062 5.82958 12.3024ZM40.1723 20.665C41.3565 20.4779 41.7081 20.2721 42.2447 19.4302C43.54 17.391 43.503 14.7719 42.0412 12.3585C41.6711 12.6204 41.2825 12.8824 40.9124 13.1443C39.2471 14.3229 38.3589 15.9692 38.1369 17.9897C38.0629 18.6819 38.1554 19.318 38.7105 19.8792C39.2471 18.289 39.7467 16.7737 40.2833 15.1835C40.8384 15.3706 41.2825 15.5389 41.7821 15.7073C41.227 17.391 40.7274 18.9812 40.1723 20.665ZM9.62282 12.9198C10.2519 11.3483 10.8441 9.90775 11.4547 8.41109C11.9913 8.63559 12.4169 8.80396 12.898 9.00975C12.5649 9.87033 12.2503 10.6748 11.9358 11.4792C11.6397 12.265 11.2511 13.032 11.0476 13.9113C11.9913 13.8926 12.6574 13.5933 13.0275 12.8824C13.4346 12.0966 13.8416 11.2735 14.0822 10.4129C14.4893 8.95363 14.3968 7.47568 13.8046 5.99773C11.4362 6.70864 9.95589 8.22401 9.40078 10.6187C9.25275 11.3296 9.06771 12.0779 9.62282 12.9198ZM36.5456 8.4298C37.1562 9.94517 37.7483 11.3857 38.3589 12.9385C39.5617 10.3567 36.9712 6.37189 34.1031 6.12869C33.289 8.56076 33.622 10.8432 34.9913 12.9759C35.4169 13.6494 36.0645 13.9487 36.9897 13.9113C36.3421 12.2463 35.7314 10.6748 35.0838 9.02846C35.6019 8.80396 36.046 8.63559 36.5456 8.4298ZM8.06852 26.2588C8.64213 25.0801 8.38308 24.1634 7.67994 23.4151C6.31067 21.9184 4.60834 20.9456 2.51743 20.4031C2.59145 21.2637 2.62845 22.0307 2.75798 22.779C3.01703 24.2196 3.59064 25.5104 4.53433 26.6329C5.10794 27.2877 5.81108 27.5309 6.79177 27.3251C5.86659 25.9781 4.99692 24.7434 4.09024 23.4338C4.51582 23.1158 4.9044 22.8351 5.34849 22.4797C6.27367 23.7518 7.12483 24.9305 8.06852 26.2588ZM39.9132 26.2588C40.8569 24.9492 41.7266 23.7518 42.6333 22.4797C43.0774 22.7977 43.4659 23.0784 43.91 23.3964C43.0034 24.7247 42.1337 25.9594 41.2085 27.2877C42.1522 27.5122 42.8368 27.3064 43.3549 26.689C43.762 26.2213 44.1136 25.7162 44.3911 25.155C45.1498 23.677 45.5013 22.1055 45.3903 20.3844C43.4104 20.9082 41.7821 21.8436 40.4128 23.2467C39.6542 24.0512 39.3396 24.9866 39.9132 26.2588ZM16.3581 36.4173C15.8215 35.2761 14.9704 34.9207 13.9527 34.9955C12.1208 35.1265 10.3815 35.6503 8.86417 36.7354C8.67914 36.8663 8.51261 37.0347 8.32757 37.2031C10.1964 38.7933 12.3429 39.2797 14.0822 39.3732C15.1739 39.4294 15.84 38.9991 16.2841 37.9888C14.6558 37.9514 13.046 38.0075 11.4547 37.9514C11.4547 37.3714 11.4547 36.9225 11.4547 36.4173C13.0645 36.4173 14.6373 36.4173 16.3581 36.4173ZM31.6421 37.9888C32.1417 39.0552 32.9559 39.4855 33.9366 39.3732C34.9913 39.261 36.046 39.0178 37.0822 38.7184C38.0444 38.4378 38.9141 37.914 39.6912 37.1844C37.9334 35.7438 35.972 35.1078 33.8441 35.0142C32.9004 34.9768 32.1232 35.3697 31.6606 36.3986C33.3445 36.436 34.9728 36.3799 36.5641 36.436C36.5641 37.016 36.5641 37.465 36.5641 37.9888C34.8988 37.9888 33.326 37.9888 31.6421 37.9888Z" fill="#0B70E2"/>
<path d="M23.0489 15.1478C23.3483 14.2264 24.6517 14.2264 24.9511 15.1478L26.0206 18.4396C26.1545 18.8516 26.5385 19.1305 26.9717 19.1305H30.4329C31.4016 19.1305 31.8044 20.3701 31.0207 20.9396L28.2205 22.974C27.87 23.2286 27.7234 23.68 27.8572 24.092L28.9268 27.3838C29.2261 28.3051 28.1717 29.0713 27.388 28.5019L24.5878 26.4674C24.2373 26.2128 23.7627 26.2128 23.4122 26.4674L20.612 28.5019C19.8283 29.0713 18.7739 28.3051 19.0732 27.3838L20.1428 24.092C20.2766 23.68 20.13 23.2286 19.7795 22.974L16.9793 20.9395C16.1956 20.3701 16.5984 19.1305 17.5671 19.1305H21.0283C21.4615 19.1305 21.8455 18.8516 21.9794 18.4396L23.0489 15.1478Z" stroke="#0B70E2" stroke-width="2"/>
</svg>
