<svg width="32" height="32" viewBox="0 0 32 32" fill="none" xmlns="http://www.w3.org/2000/svg">
<rect y="0.220703" width="32" height="32" rx="16" fill="url(#paint0_linear_5747_22491)"/>
<path d="M10.1961 11.4344C9.91494 10.9106 9.85246 10.3996 9.97119 9.87572C10.3336 8.36174 12.1146 7.75486 13.2956 8.75141C13.8268 9.19858 14.3204 9.68408 14.8266 10.1568C15.7514 9.48605 16.3451 9.47966 17.1699 10.1632C17.6511 9.72241 18.126 9.26885 18.6134 8.82807C19.2758 8.23397 20.0319 8.08705 20.8505 8.44478C21.9129 8.91112 22.369 10.144 21.9066 11.2236C21.8816 11.2811 21.8566 11.3386 21.8129 11.4344C22.1628 11.4344 22.4815 11.4344 22.8002 11.4344C23.6063 11.4344 24 11.8369 24 12.6737C24 13.0762 24 13.1155 24 13.5179C24 14.0992 23.8375 14.2589 23.2814 14.2589C18.9196 14.2589 14.5516 14.2589 10.1899 14.2589C9.67124 14.2589 9.14633 14.2589 8.62767 14.2589C8.19024 14.2589 8.00278 14.0609 8.00278 13.6137C8.00278 13.1474 7.99653 13.0442 8.00278 12.5779C8.00903 11.8624 8.4277 11.4344 9.14008 11.4344C9.47127 11.4344 9.80871 11.4344 10.1961 11.4344ZM14.4767 11.428C14.4079 11.3003 14.3829 11.1981 14.3204 11.1406C13.7705 10.6167 13.2206 10.0993 12.6582 9.59465C12.3083 9.28163 11.8584 9.24969 11.4709 9.47966C11.096 9.70324 10.896 10.144 10.9835 10.5656C11.0772 11.032 11.4147 11.4025 11.8709 11.4217C12.7145 11.4472 13.5643 11.428 14.4767 11.428ZM17.5199 11.428C18.4135 11.428 19.2321 11.4472 20.0507 11.4217C20.5381 11.4089 20.913 11.0575 21.013 10.6104C21.113 10.1696 20.9318 9.71602 20.5568 9.48605C20.1569 9.23691 19.6945 9.27524 19.3196 9.6202C18.7759 10.1121 18.2385 10.6167 17.7011 11.1214C17.6324 11.1853 17.5949 11.2939 17.5199 11.428Z" fill="white"/>
<path d="M17 24.0596C17 21.1442 17 18.1798 17 15.2832C18.9559 15.2832 20.9056 15.2832 22.8865 15.2832C22.8865 15.4021 22.8865 15.5147 22.8865 15.6273C22.8865 17.9922 22.8865 20.4498 22.8865 22.8146C22.8865 23.6718 22.499 24.0596 21.6554 24.0596C20.2182 24.0596 18.7809 24.0596 17.3499 24.0596C17.2437 24.0596 17.1437 24.0596 17 24.0596Z" fill="white"/>
<path d="M9 15.2832C11.0191 15.2832 13 15.2832 15 15.2832C15 18.2108 15 21.1194 15 24.0533C14.879 24.0596 14.7771 24.0659 14.6752 24.0659C13.2038 24.0659 11.7261 24.0659 10.2548 24.0659C9.40764 24.0659 9.00637 23.6675 9.00637 22.8329C9.00637 20.4302 9.00637 18.0337 9.00637 15.631C9 15.5235 9 15.416 9 15.2832Z" fill="white"/>
<defs>
<linearGradient id="paint0_linear_5747_22491" x1="16" y1="0.220703" x2="16" y2="32.2207" gradientUnits="userSpaceOnUse">
<stop stop-color="#FFAA00"/>
<stop offset="1" stop-color="#FF782C"/>
</linearGradient>
</defs>
</svg>
