<svg width="28" height="28" viewBox="0 0 28 28" fill="none" xmlns="http://www.w3.org/2000/svg">
<path d="M24.2539 23.0964L14.3372 16.0913C14.1355 15.9487 13.8658 15.9487 13.6641 16.0913L3.74735 23.0964C3.5922 23.2058 3.49989 23.384 3.5 23.5739V24.1577C3.49995 24.4801 3.76113 24.7415 4.0833 24.7415H23.9168C24.2389 24.7415 24.5001 24.4801 24.5001 24.1577V23.5739C24.5005 23.3842 24.4086 23.2061 24.2539 23.0964Z" fill="#CFD8DC"/>
<path d="M14.3372 16.0891L4.4205 9.084C4.15762 8.89765 3.79351 8.95987 3.6073 9.22295C3.53724 9.3219 3.49973 9.44022 3.5 9.56149V23.5717C3.49935 23.8941 3.76004 24.1559 4.0822 24.1566C4.20339 24.1568 4.32163 24.1193 4.4205 24.0492L14.3372 17.0441C14.6004 16.8582 14.6631 16.494 14.4774 16.2306C14.439 16.1762 14.3916 16.1287 14.3372 16.0903V16.0891Z" fill="#FAFAFA"/>
<path d="M24.1844 9.04323C23.9905 8.94407 23.7578 8.95977 23.5789 9.08411L13.6623 16.0892C13.3991 16.2751 13.3363 16.6393 13.5221 16.9027C13.5605 16.9572 13.6079 17.0046 13.6623 17.043L23.5789 24.0481C23.8418 24.2345 24.2059 24.1722 24.3921 23.9092C24.462 23.8106 24.4994 23.6927 24.4994 23.5718V9.56161C24.4994 9.34347 24.378 9.14355 24.1844 9.04323Z" fill="#EEEEEE"/>
<path d="M25.6394 4.12723C25.5607 3.88758 25.3372 3.72559 25.0852 3.72559H2.91853C2.59636 3.72559 2.33517 3.98696 2.33517 4.30936C2.33517 4.49308 2.42164 4.66613 2.56853 4.77635L13.6519 12.9489C13.8576 13.1005 14.138 13.1005 14.3437 12.9489L25.427 4.77635C25.6301 4.62831 25.7157 4.36677 25.6394 4.12723Z" fill="#ECEFF1"/>
<path d="M25.0834 3.72559C24.9571 3.72559 24.8343 3.76658 24.7334 3.84232L14 11.7569L3.26665 3.84232C3.1657 3.76658 3.04287 3.72559 2.91665 3.72559C1.30583 3.72559 0 5.03236 0 6.64435V21.822C0 23.4341 1.30583 24.7408 2.91665 24.7408H4.0833C4.40546 24.7408 4.66665 24.4795 4.66665 24.1571V10.6898L13.6628 17.0458C13.8645 17.1884 14.1342 17.1884 14.3359 17.0458L23.3333 10.6898V24.1571C23.3333 24.4795 23.5945 24.7408 23.9166 24.7408H25.0833C26.6942 24.7408 28 23.4341 28 21.8221V6.64435C28 5.03236 26.6942 3.72559 25.0834 3.72559Z" fill="#F44336"/>
</svg>
