<svg width="32" height="32" viewBox="0 0 32 32" fill="none" xmlns="http://www.w3.org/2000/svg">
<path fill-rule="evenodd" clip-rule="evenodd" d="M5.33332 2.8877H26.6667C28.1333 2.8877 29.3333 4.0877 29.3333 5.55436V21.5544C29.3333 23.021 28.1333 24.221 26.6667 24.221H7.99999L2.66666 29.5544L2.67999 5.55436C2.67999 4.0877 3.86666 2.8877 5.33332 2.8877ZM22.6667 12.221H9.33332C8.59999 12.221 7.99999 12.821 7.99999 13.5544C7.99999 14.2877 8.59999 14.8877 9.33332 14.8877H22.6667C23.4 14.8877 24 14.2877 24 13.5544C24 12.821 23.4 12.221 22.6667 12.221ZM17.3333 18.8877H9.33332C8.59999 18.8877 7.99999 18.2877 7.99999 17.5544C7.99999 16.821 8.59999 16.221 9.33332 16.221H17.3333C18.0667 16.221 18.6667 16.821 18.6667 17.5544C18.6667 18.2877 18.0667 18.8877 17.3333 18.8877ZM9.33332 10.8877H22.6667C23.4 10.8877 24 10.2877 24 9.55436C24 8.82103 23.4 8.22103 22.6667 8.22103H9.33332C8.59999 8.22103 7.99999 8.82103 7.99999 9.55436C7.99999 10.2877 8.59999 10.8877 9.33332 10.8877Z" fill="#BFCBDB"/>
<path fill-rule="evenodd" clip-rule="evenodd" d="M5.33332 2.8877H26.6667C28.1333 2.8877 29.3333 4.0877 29.3333 5.55436V21.5544C29.3333 23.021 28.1333 24.221 26.6667 24.221H7.99999L2.66666 29.5544L2.67999 5.55436C2.67999 4.0877 3.86666 2.8877 5.33332 2.8877ZM22.6667 12.221H9.33332C8.59999 12.221 7.99999 12.821 7.99999 13.5544C7.99999 14.2877 8.59999 14.8877 9.33332 14.8877H22.6667C23.4 14.8877 24 14.2877 24 13.5544C24 12.821 23.4 12.221 22.6667 12.221ZM17.3333 18.8877H9.33332C8.59999 18.8877 7.99999 18.2877 7.99999 17.5544C7.99999 16.821 8.59999 16.221 9.33332 16.221H17.3333C18.0667 16.221 18.6667 16.821 18.6667 17.5544C18.6667 18.2877 18.0667 18.8877 17.3333 18.8877ZM9.33332 10.8877H22.6667C23.4 10.8877 24 10.2877 24 9.55436C24 8.82103 23.4 8.22103 22.6667 8.22103H9.33332C8.59999 8.22103 7.99999 8.82103 7.99999 9.55436C7.99999 10.2877 8.59999 10.8877 9.33332 10.8877Z" fill="#C2CDDB"/>
</svg>
