<svg width="32" height="32" viewBox="0 0 32 32" fill="none" xmlns="http://www.w3.org/2000/svg">
<path fill-rule="evenodd" clip-rule="evenodd" d="M26.6667 6.68717H22.4401L20.7867 4.88717C20.2934 4.34051 19.5734 4.02051 18.8267 4.02051H13.1734C12.4267 4.02051 11.7067 4.34051 11.2001 4.88717L9.56005 6.68717H5.33338C3.86672 6.68717 2.66672 7.88717 2.66672 9.35384V25.3538C2.66672 26.8205 3.86672 28.0205 5.33338 28.0205H26.6667C28.1334 28.0205 29.3334 26.8205 29.3334 25.3538V9.35384C29.3334 7.88717 28.1334 6.68717 26.6667 6.68717ZM16 13.3538C13.7909 13.3538 12 15.1447 12 17.3538C12 19.563 13.7909 21.3538 16 21.3538C18.2091 21.3538 20 19.563 20 17.3538C20 15.1447 18.2091 13.3538 16 13.3538ZM9.33334 17.3538C9.33334 21.0338 12.32 24.0205 16 24.0205C19.68 24.0205 22.6667 21.0338 22.6667 17.3538C22.6667 13.6738 19.68 10.6872 16 10.6872C12.32 10.6872 9.33334 13.6738 9.33334 17.3538Z" fill="#BFCBDB"/>
<path fill-rule="evenodd" clip-rule="evenodd" d="M26.6667 6.68717H22.4401L20.7867 4.88717C20.2934 4.34051 19.5734 4.02051 18.8267 4.02051H13.1734C12.4267 4.02051 11.7067 4.34051 11.2001 4.88717L9.56005 6.68717H5.33338C3.86672 6.68717 2.66672 7.88717 2.66672 9.35384V25.3538C2.66672 26.8205 3.86672 28.0205 5.33338 28.0205H26.6667C28.1334 28.0205 29.3334 26.8205 29.3334 25.3538V9.35384C29.3334 7.88717 28.1334 6.68717 26.6667 6.68717ZM16 13.3538C13.7909 13.3538 12 15.1447 12 17.3538C12 19.563 13.7909 21.3538 16 21.3538C18.2091 21.3538 20 19.563 20 17.3538C20 15.1447 18.2091 13.3538 16 13.3538ZM9.33334 17.3538C9.33334 21.0338 12.32 24.0205 16 24.0205C19.68 24.0205 22.6667 21.0338 22.6667 17.3538C22.6667 13.6738 19.68 10.6872 16 10.6872C12.32 10.6872 9.33334 13.6738 9.33334 17.3538Z" fill="#C2CDDB"/>
</svg>
