<svg width="48" height="48" viewBox="0 0 48 48" fill="none" xmlns="http://www.w3.org/2000/svg">
<path d="M34.072 9.6864C34.072 7.22869 36.0644 5.23633 38.5221 5.23633C40.9798 5.23633 42.9722 7.22869 42.9722 9.6864V17.2686H34.072V9.6864Z" stroke="#0B70E2" stroke-width="2"/>
<path d="M38.5101 5.22658L8.98566 5.22656C7.32783 5.22656 5.98428 6.57124 5.98566 8.22907L6.01317 41.2137L10 44.2219L14 41.2137L18.0312 44.2219L22.5483 40.8928" stroke="#0B70E2" stroke-width="2"/>
<path d="M31.366 36.9262L33.4695 38.9477C33.663 39.1336 33.9689 39.1336 34.1624 38.9477L39.366 33.9473" stroke="#0B70E2" stroke-width="2" stroke-linecap="round"/>
<circle cx="35.3658" cy="36.6141" r="8.60632" stroke="#0B70E2" stroke-width="2"/>
<path d="M34.072 16.5957L34.072 24.2832" stroke="#0B70E2" stroke-width="2"/>
<path d="M10.9988 24.2832L28.9954 24.2832" stroke="#0B70E2" stroke-width="2" stroke-linecap="round"/>
<path d="M10.9988 29.2246L25.0305 29.2246" stroke="#0B70E2" stroke-width="2" stroke-linecap="round"/>
<path d="M10.9988 34.2363L19.9971 34.2363" stroke="#0B70E2" stroke-width="2" stroke-linecap="round"/>
<mask id="path-9-inside-1_5743_22855" fill="white">
<path fill-rule="evenodd" clip-rule="evenodd" d="M23.0078 8.23242H17.0078V11.2324H14.0078V17.2324H17.0078V20.2324H23.0078V17.2324H26.0078V11.2324H23.0078V8.23242Z"/>
</mask>
<path d="M17.0078 8.23242V6.23242H15.0078V8.23242H17.0078ZM23.0078 8.23242H25.0078V6.23242H23.0078V8.23242ZM17.0078 11.2324V13.2324H19.0078V11.2324H17.0078ZM14.0078 11.2324V9.23242H12.0078V11.2324H14.0078ZM14.0078 17.2324H12.0078V19.2324H14.0078V17.2324ZM17.0078 17.2324H19.0078V15.2324H17.0078V17.2324ZM17.0078 20.2324H15.0078V22.2324H17.0078V20.2324ZM23.0078 20.2324V22.2324H25.0078V20.2324H23.0078ZM23.0078 17.2324V15.2324H21.0078V17.2324H23.0078ZM26.0078 17.2324V19.2324H28.0078V17.2324H26.0078ZM26.0078 11.2324H28.0078V9.23242H26.0078V11.2324ZM23.0078 11.2324H21.0078V13.2324H23.0078V11.2324ZM17.0078 10.2324H23.0078V6.23242H17.0078V10.2324ZM19.0078 11.2324V8.23242H15.0078V11.2324H19.0078ZM14.0078 13.2324H17.0078V9.23242H14.0078V13.2324ZM16.0078 17.2324V11.2324H12.0078V17.2324H16.0078ZM17.0078 15.2324H14.0078V19.2324H17.0078V15.2324ZM19.0078 20.2324V17.2324H15.0078V20.2324H19.0078ZM23.0078 18.2324H17.0078V22.2324H23.0078V18.2324ZM21.0078 17.2324V20.2324H25.0078V17.2324H21.0078ZM26.0078 15.2324H23.0078V19.2324H26.0078V15.2324ZM24.0078 11.2324V17.2324H28.0078V11.2324H24.0078ZM23.0078 13.2324H26.0078V9.23242H23.0078V13.2324ZM21.0078 8.23242V11.2324H25.0078V8.23242H21.0078Z" fill="#0B70E2" mask="url(#path-9-inside-1_5743_22855)"/>
</svg>
