<svg width="110" height="160" viewBox="0 0 110 160" fill="none" xmlns="http://www.w3.org/2000/svg">
<rect x="0.392157" y="0.232977" width="109.098" height="159.216" rx="2.7451" stroke="#ECECEE" stroke-width="0.784314"/>
<rect x="0.392157" y="0.232977" width="109.098" height="159.216" rx="2.7451" stroke="#DEDEE1" stroke-width="0.784314"/>
<path d="M31.2734 77.4444C31.2734 77.6347 31.2478 77.825 31.1966 78.0153C31.1527 78.2057 31.0758 78.3813 30.966 78.5424C30.8562 78.6961 30.7134 78.8352 30.5377 78.9596C30.3621 79.0768 30.1498 79.1646 29.9009 79.2232V79.2891C30.1205 79.3257 30.3291 79.3879 30.5268 79.4757C30.7244 79.5636 30.8964 79.6844 31.0428 79.8381C31.1893 79.9918 31.3027 80.1785 31.3832 80.3981C31.4711 80.6177 31.515 80.8776 31.515 81.1777C31.515 81.573 31.4308 81.917 31.2625 82.2098C31.0941 82.4953 30.8672 82.7296 30.5817 82.9126C30.3035 83.0956 29.9851 83.231 29.6264 83.3189C29.2677 83.4067 28.898 83.4506 28.5174 83.4506C28.3929 83.4506 28.2319 83.4506 28.0342 83.4506C27.8439 83.4506 27.6353 83.4433 27.4083 83.4287C27.1887 83.4213 26.9618 83.4067 26.7276 83.3847C26.5006 83.3628 26.292 83.3298 26.1017 83.2859V75.7094C26.2408 75.6875 26.3981 75.6655 26.5738 75.6436C26.7568 75.6216 26.9508 75.6033 27.1558 75.5887C27.3608 75.574 27.5694 75.563 27.7817 75.5557C28.0013 75.5484 28.2172 75.5447 28.4295 75.5447C28.7882 75.5447 29.1359 75.574 29.4727 75.6326C29.8167 75.6838 30.1205 75.779 30.384 75.9181C30.6549 76.0572 30.8708 76.2511 31.0319 76.5C31.1929 76.7489 31.2734 77.0637 31.2734 77.4444ZM28.5283 82.2098C28.7113 82.2098 28.887 82.1879 29.0554 82.144C29.2311 82.1 29.3848 82.0342 29.5166 81.9463C29.6483 81.8511 29.7545 81.734 29.835 81.5949C29.9155 81.4559 29.9558 81.2911 29.9558 81.1008C29.9558 80.8593 29.9082 80.6689 29.813 80.5298C29.7179 80.3908 29.5934 80.2846 29.4397 80.2114C29.286 80.1309 29.114 80.0796 28.9236 80.0577C28.7333 80.0357 28.543 80.0247 28.3527 80.0247H27.5511V82.144C27.5877 82.1586 27.6462 82.1696 27.7268 82.1769C27.8073 82.1842 27.8915 82.1915 27.9793 82.1989C28.0745 82.1989 28.1696 82.2025 28.2648 82.2098C28.3673 82.2098 28.4551 82.2098 28.5283 82.2098ZM28.0342 78.8828C28.1367 78.8828 28.2538 78.8791 28.3856 78.8718C28.5247 78.8645 28.6381 78.8535 28.726 78.8389C29.0042 78.751 29.2421 78.6193 29.4397 78.4436C29.6447 78.2679 29.7472 78.0373 29.7472 77.7518C29.7472 77.5615 29.7106 77.4041 29.6374 77.2796C29.5642 77.1552 29.4653 77.0564 29.3409 76.9832C29.2238 76.91 29.0883 76.8587 28.9346 76.8294C28.7809 76.8002 28.6198 76.7855 28.4515 76.7855C28.2611 76.7855 28.0855 76.7892 27.9244 76.7965C27.7634 76.8038 27.6389 76.8148 27.5511 76.8294V78.8828H28.0342ZM36.4432 83.0004C36.2236 83.1615 35.9564 83.2823 35.6417 83.3628C35.3342 83.4506 35.0158 83.4945 34.6864 83.4945C34.2471 83.4945 33.8738 83.425 33.5664 83.2859C33.2662 83.1468 33.021 82.9528 32.8307 82.704C32.6404 82.4477 32.5013 82.1403 32.4134 81.7816C32.3329 81.4229 32.2926 81.0276 32.2926 80.5957C32.2926 79.666 32.5013 78.9523 32.9185 78.4545C33.3358 77.9494 33.9434 77.6969 34.7413 77.6969C35.1439 77.6969 35.466 77.7298 35.7075 77.7957C35.9564 77.8616 36.1797 77.9458 36.3773 78.0483L36.037 79.2122C35.8686 79.1317 35.7002 79.0694 35.5319 79.0255C35.3708 78.9816 35.1841 78.9596 34.9719 78.9596C34.5766 78.9596 34.2764 79.0914 34.0715 79.3549C33.8665 79.6111 33.764 80.0247 33.764 80.5957C33.764 80.83 33.7896 81.0459 33.8409 81.2436C33.8921 81.4412 33.969 81.6132 34.0715 81.7596C34.1739 81.906 34.3057 82.0232 34.4668 82.111C34.6351 82.1915 34.8291 82.2318 35.0487 82.2318C35.2903 82.2318 35.4953 82.2025 35.6636 82.144C35.832 82.0781 35.9821 82.0012 36.1138 81.9134L36.4432 83.0004ZM41.5163 82.8687C41.2967 83.0443 40.9966 83.1944 40.6159 83.3189C40.2426 83.436 39.8437 83.4945 39.4191 83.4945C38.5333 83.4945 37.8855 83.2383 37.4756 82.7259C37.0656 82.2062 36.8607 81.4961 36.8607 80.5957C36.8607 79.6294 37.0912 78.9047 37.5524 78.4216C38.0136 77.9385 38.6614 77.6969 39.4959 77.6969C39.7741 77.6969 40.045 77.7335 40.3085 77.8067C40.572 77.8799 40.8063 78.0007 41.0112 78.1691C41.2162 78.3374 41.3809 78.5644 41.5054 78.8498C41.6298 79.1353 41.692 79.4904 41.692 79.9149C41.692 80.0687 41.681 80.2334 41.6591 80.4091C41.6444 80.5847 41.6188 80.7677 41.5822 80.9581H38.2881C38.3101 81.4193 38.4272 81.767 38.6395 82.0012C38.8591 82.2355 39.2105 82.3526 39.6936 82.3526C39.9937 82.3526 40.2609 82.3087 40.4952 82.2208C40.7367 82.1257 40.9197 82.0305 41.0442 81.9353L41.5163 82.8687ZM39.474 78.8389C39.1007 78.8389 38.8225 78.9523 38.6395 79.1793C38.4638 79.3989 38.3576 79.6953 38.321 80.0687H40.3634C40.3927 79.6734 40.3305 79.3696 40.1767 79.1573C40.0303 78.945 39.7961 78.8389 39.474 78.8389ZM47.9919 83.4067C47.8675 83.4506 47.7357 83.4762 47.5966 83.4836C47.4649 83.4909 47.3441 83.4945 47.2343 83.4945C46.5681 83.4945 46.0557 83.2566 45.697 82.7808C45.3383 82.305 45.159 81.5766 45.159 80.5957C45.159 79.6587 45.3566 78.9487 45.7519 78.4655C46.1472 77.9824 46.7182 77.7408 47.4649 77.7408C47.6698 77.7408 47.8455 77.7555 47.9919 77.7847V75.6545H49.3974V77.7957C49.5292 77.7738 49.6463 77.7591 49.7488 77.7518C49.8513 77.7445 49.9501 77.7408 50.0453 77.7408C50.77 77.7408 51.3153 77.9568 51.6814 78.3887C52.0474 78.8132 52.2304 79.5123 52.2304 80.4859C52.2304 80.9471 52.1791 81.3643 52.0766 81.7377C51.9815 82.1037 51.8387 82.4185 51.6484 82.682C51.4581 82.9455 51.2238 83.1468 50.9457 83.2859C50.6748 83.425 50.36 83.4945 50.0014 83.4945C49.9355 83.4945 49.8366 83.4872 49.7049 83.4726C49.5804 83.4653 49.478 83.447 49.3974 83.4177V85.5369H47.9919V83.4067ZM49.7268 78.8718C49.6536 78.8718 49.5878 78.8791 49.5292 78.8938C49.478 78.9011 49.4121 78.9121 49.3315 78.9267V82.3306C49.3901 82.3453 49.456 82.3562 49.5292 82.3636C49.6097 82.3636 49.6939 82.3636 49.7817 82.3636C50.1331 82.3636 50.3893 82.2208 50.5504 81.9353C50.7187 81.6425 50.8029 81.1594 50.8029 80.4859C50.8029 79.9149 50.7224 79.505 50.5614 79.2561C50.4003 78.9999 50.1221 78.8718 49.7268 78.8718ZM47.6076 82.3636C47.6881 82.3636 47.7614 82.3599 47.8272 82.3526C47.9004 82.3379 47.9773 82.3233 48.0578 82.3087V78.9157C47.9187 78.8864 47.776 78.8718 47.6296 78.8718C47.2929 78.8718 47.033 79.0036 46.85 79.2671C46.6743 79.5233 46.5864 79.9662 46.5864 80.5957C46.5864 81.1667 46.667 81.6059 46.828 81.9134C46.9964 82.2135 47.2563 82.3636 47.6076 82.3636ZM52.9023 80.5957C52.9023 79.666 53.1292 78.9523 53.5831 78.4545C54.037 77.9494 54.6738 77.6969 55.4937 77.6969C55.9329 77.6969 56.3136 77.7664 56.6357 77.9055C56.9577 78.0446 57.2249 78.2423 57.4372 78.4985C57.6495 78.7474 57.8069 79.0511 57.9094 79.4098C58.0192 79.7685 58.0741 80.1638 58.0741 80.5957C58.0741 81.5254 57.8472 82.2428 57.3933 82.7479C56.9468 83.2457 56.3136 83.4945 55.4937 83.4945C55.0545 83.4945 54.6738 83.425 54.3517 83.2859C54.0296 83.1468 53.7588 82.9528 53.5392 82.704C53.3269 82.4477 53.1658 82.1403 53.056 81.7816C52.9536 81.4229 52.9023 81.0276 52.9023 80.5957ZM54.3737 80.5957C54.3737 80.8373 54.3957 81.0606 54.4396 81.2655C54.4835 81.4705 54.5494 81.6498 54.6372 81.8036C54.7251 81.9573 54.8385 82.0781 54.9776 82.1659C55.124 82.2464 55.296 82.2867 55.4937 82.2867C55.867 82.2867 56.1452 82.1513 56.3282 81.8804C56.5112 81.6096 56.6027 81.1813 56.6027 80.5957C56.6027 80.0906 56.5185 79.6844 56.3502 79.3769C56.1818 79.0621 55.8963 78.9047 55.4937 78.9047C55.1423 78.9047 54.8678 79.0365 54.6702 79.3C54.4725 79.5636 54.3737 79.9955 54.3737 80.5957ZM62.9307 79.1134H61.3824V83.3408H59.9111V79.1134H58.3628V77.8506H62.9307V79.1134ZM63.2179 80.5957C63.2179 79.666 63.4448 78.9523 63.8987 78.4545C64.3525 77.9494 64.9894 77.6969 65.8093 77.6969C66.2485 77.6969 66.6291 77.7664 66.9512 77.9055C67.2733 78.0446 67.5405 78.2423 67.7528 78.4985C67.9651 78.7474 68.1225 79.0511 68.2249 79.4098C68.3347 79.7685 68.3896 80.1638 68.3896 80.5957C68.3896 81.5254 68.1627 82.2428 67.7089 82.7479C67.2623 83.2457 66.6291 83.4945 65.8093 83.4945C65.37 83.4945 64.9894 83.425 64.6673 83.2859C64.3452 83.1468 64.0743 82.9528 63.8547 82.704C63.6425 82.4477 63.4814 82.1403 63.3716 81.7816C63.2691 81.4229 63.2179 81.0276 63.2179 80.5957ZM64.6893 80.5957C64.6893 80.8373 64.7112 81.0606 64.7551 81.2655C64.7991 81.4705 64.8649 81.6498 64.9528 81.8036C65.0406 81.9573 65.1541 82.0781 65.2932 82.1659C65.4396 82.2464 65.6116 82.2867 65.8093 82.2867C66.1826 82.2867 66.4608 82.1513 66.6438 81.8804C66.8268 81.6096 66.9183 81.1813 66.9183 80.5957C66.9183 80.0906 66.8341 79.6844 66.6657 79.3769C66.4974 79.0621 66.2119 78.9047 65.8093 78.9047C65.4579 78.9047 65.1834 79.0365 64.9857 79.3C64.7881 79.5636 64.6893 79.9955 64.6893 80.5957Z" fill="#0B70E2"/>
<path d="M81.2501 75.9326L85.1122 79.7948C85.1428 79.8254 85.1428 79.8751 85.1122 79.9057L81.2501 83.7678" stroke="#0B70E2" stroke-width="1.56863" stroke-linecap="round"/>
</svg>
