<svg width="20" height="18" viewBox="0 0 20 18" fill="none" xmlns="http://www.w3.org/2000/svg">
<path d="M18.691 0.286286L0.452843 7.39346C-0.137893 7.62368 -0.102106 8.47139 0.505986 8.65093L5.14049 10.0195L6.87009 15.5076C7.05077 16.0809 7.77723 16.2547 8.19777 15.8253L10.5939 13.3787L15.2954 16.8297C15.8708 17.252 16.6902 16.9382 16.8363 16.2397L19.9501 1.35255C20.1026 0.623335 19.3851 0.0157849 18.691 0.286286ZM16.4044 3.59011L7.93289 11.0814C7.84845 11.1561 7.79471 11.2595 7.78214 11.3715L7.45598 14.2709C7.44533 14.3654 7.31301 14.3779 7.28476 14.2871L5.94284 9.96309C5.88138 9.76513 5.96152 9.55064 6.13764 9.44142L16.1416 3.2369C16.3717 3.09411 16.6072 3.41081 16.4044 3.59011Z" fill="white"/>
</svg>
