<svg width="32" height="33" viewBox="0 0 32 33" fill="none" xmlns="http://www.w3.org/2000/svg">
<path d="M0 16.2207C0 25.0573 7.16344 32.2207 16 32.2207C24.8366 32.2207 32 25.0573 32 16.2207C32 7.38415 24.8366 0.220703 16 0.220703C7.16344 0.220703 0 7.38415 0 16.2207Z" fill="url(#paint0_linear_5743_22901)"/>
<path d="M23.4159 7.27359L5.17779 14.3808C4.58705 14.611 4.62284 15.4587 5.23093 15.6382L9.86544 17.0068L11.595 22.495C11.7757 23.0682 12.5022 23.242 12.9227 22.8126L15.3189 20.366L20.0204 23.817C20.5957 24.2393 21.4151 23.9256 21.5612 23.227L24.675 8.33985C24.8275 7.61064 24.1101 7.00309 23.4159 7.27359ZM21.1294 10.5774L12.6578 18.0687C12.5734 18.1434 12.5197 18.2468 12.5071 18.3588L12.1809 21.2582C12.1703 21.3527 12.038 21.3653 12.0097 21.2744L10.6678 16.9504C10.6063 16.7524 10.6865 16.5379 10.8626 16.4287L20.8666 10.2242C21.0966 10.0814 21.3322 10.3981 21.1294 10.5774Z" fill="white"/>
<defs>
<linearGradient id="paint0_linear_5743_22901" x1="16" y1="0.220703" x2="16" y2="32.2207" gradientUnits="userSpaceOnUse">
<stop stop-color="#46A9EE"/>
<stop offset="1" stop-color="#3889D5"/>
</linearGradient>
</defs>
</svg>
