<svg width="30" height="22" viewBox="0 0 30 22" fill="none" xmlns="http://www.w3.org/2000/svg">
<path d="M25.3846 0.866211H4.61539C2.19347 0.866211 0.230774 2.8289 0.230774 5.25083V16.7893C0.230774 19.2112 2.19347 21.1739 4.61539 21.1739H25.3846C27.8065 21.1739 29.7692 19.2112 29.7692 16.7893V5.25083C29.7692 2.8289 27.8065 0.866211 25.3846 0.866211ZM11.7692 15.6354V6.40467L19.6154 11.0201L11.7692 15.6354Z" fill="#BFCBDB"/>
<path d="M25.3846 0.866211H4.61539C2.19347 0.866211 0.230774 2.8289 0.230774 5.25083V16.7893C0.230774 19.2112 2.19347 21.1739 4.61539 21.1739H25.3846C27.8065 21.1739 29.7692 19.2112 29.7692 16.7893V5.25083C29.7692 2.8289 27.8065 0.866211 25.3846 0.866211ZM11.7692 15.6354V6.40467L19.6154 11.0201L11.7692 15.6354Z" fill="#C2CDDB"/>
</svg>
