<svg width="32" height="33" viewBox="0 0 32 33" fill="none" xmlns="http://www.w3.org/2000/svg">
<g clip-path="url(#clip0_5743_22905)">
<path d="M0 15.5807C0 8.3399 0 4.71954 2.24942 2.47012C4.49884 0.220703 8.1192 0.220703 15.36 0.220703H16.64C23.8808 0.220703 27.5011 0.220703 29.7506 2.47012C32 4.71954 32 8.3399 32 15.5807V16.8607C32 24.1015 32 27.7218 29.7506 29.9713C27.5011 32.2207 23.8808 32.2207 16.64 32.2207H15.36C8.1192 32.2207 4.49884 32.2207 2.24942 29.9713C0 27.7218 0 24.1015 0 16.8607V15.5807Z" fill="#0077FF"/>
<path d="M17.0267 23.2741C9.73338 23.2741 5.57345 18.2741 5.40012 9.9541H9.05345C9.17345 16.0608 11.8667 18.6474 14 19.1808V9.9541H17.4402V15.2208C19.5469 14.9941 21.7599 12.5941 22.5066 9.9541H25.9466C25.3733 13.2074 22.9733 15.6074 21.2667 16.5941C22.9733 17.3941 25.7068 19.4874 26.7468 23.2741H22.96C22.1467 20.7408 20.1202 18.7808 17.4402 18.5141V23.2741H17.0267Z" fill="white"/>
</g>
<defs>
<clipPath id="clip0_5743_22905">
<rect width="32" height="32" fill="white" transform="translate(0 0.220703)"/>
</clipPath>
</defs>
</svg>
